<?xml version="1.0" standalone="no"?>
<!DOCTYPE svg PUBLIC "-//W3C//DTD SVG 20010904//EN"
 "http://www.w3.org/TR/2001/REC-SVG-20010904/DTD/svg10.dtd">
<svg version="1.0" xmlns="http://www.w3.org/2000/svg"
 width="960.000000pt" height="960.000000pt" viewBox="0 0 960.000000 960.000000"
 preserveAspectRatio="xMidYMid meet">

<g transform="translate(0.000000,960.000000) scale(0.100000,-0.100000)"
fill="#000000" stroke="none">
<path d="M0 4800 l0 -4800 4800 0 4800 0 0 4800 0 4800 -1955 0 c-1075 0
-1955 -3 -1955 -6 0 -3 47 -96 104 -207 113 -218 174 -361 206 -484 24 -92
252 -1223 279 -1388 6 -33 19 -103 30 -155 11 -52 36 -187 56 -300 19 -113 49
-266 67 -340 53 -228 58 -253 58 -301 0 -89 -59 -246 -140 -369 -81 -124 -78
-155 25 -237 73 -59 97 -98 87 -138 -13 -47 -29 -41 -28 11 1 44 -2 49 -43 83
-106 86 -124 107 -123 139 0 20 21 65 55 120 70 114 99 171 127 257 32 94 30
169 -8 330 -29 122 -77 362 -120 605 -21 112 -44 232 -148 755 -36 182 -85
429 -109 550 -98 493 -128 577 -307 868 -116 188 -132 207 -175 207 l-34 0 49
-57 c53 -61 195 -263 244 -347 76 -128 123 -294 177 -617 22 -129 69 -382 105
-564 36 -181 75 -379 85 -440 11 -60 49 -267 84 -460 108 -582 121 -670 107
-740 -12 -58 -39 -139 -46 -133 -1 2 2 24 7 48 24 104 17 103 -37 -5 -30 -60
-70 -128 -90 -150 -19 -22 -31 -31 -26 -20 5 11 23 49 40 85 16 36 37 83 46
105 33 79 41 95 50 95 5 0 2 8 -6 18 -9 9 -19 48 -23 87 -9 93 -184 1076 -240
1350 -8 39 -24 124 -35 190 -84 482 -151 766 -195 825 -6 8 -17 28 -25 44 -18
36 -158 182 -166 173 -8 -8 28 -67 38 -61 4 3 8 1 8 -5 0 -17 -22 -24 -31 -10
-6 9 -7 4 -4 -16 11 -79 14 -145 6 -145 -10 0 -19 23 -68 165 -37 108 -96 215
-150 273 -7 7 -13 18 -13 23 0 5 -4 9 -9 9 -4 0 -7 -18 -5 -41 7 -98 -28 -85
-89 34 -53 105 -84 159 -134 235 l-35 52 -649 0 -649 0 -52 -48 c-77 -69 -140
-140 -181 -202 -21 -30 -41 -60 -47 -67 -6 -7 -27 -36 -48 -66 -44 -64 -155
-197 -160 -192 -3 3 66 104 78 115 3 3 22 28 41 55 18 28 37 52 40 55 4 3 24
34 46 70 22 36 72 111 112 168 39 57 71 105 71 108 0 2 -16 4 -35 4 -19 0 -35
-4 -35 -9 0 -5 -19 -33 -43 -63 -138 -170 -485 -769 -557 -961 -21 -56 -57
-169 -79 -251 -38 -140 -62 -205 -46 -126 26 128 130 439 181 542 130 258 446
771 513 832 12 11 21 23 21 28 0 4 -830 8 -1845 8 l-1845 0 0 -4800z m2993
4650 c-13 -5 -23 -14 -23 -19 0 -6 -6 -8 -12 -6 -7 3 -23 -11 -36 -31 -17 -26
-28 -34 -42 -29 -13 4 -20 0 -25 -14 -3 -11 -12 -18 -19 -15 -8 3 -42 -24 -79
-60 -35 -36 -68 -66 -71 -66 -20 0 4 34 69 99 41 40 75 80 75 88 0 8 4 11 10
8 5 -3 17 3 27 15 10 11 25 20 35 20 9 0 19 3 21 8 3 4 25 8 49 9 35 2 39 0
21 -7z m1390 -187 c-7 -2 -19 -2 -25 0 -7 3 -2 5 12 5 14 0 19 -2 13 -5z m52
-13 c3 -5 1 -10 -4 -10 -6 0 -11 5 -11 10 0 6 2 10 4 10 3 0 8 -4 11 -10z m85
-30 c18 -12 2 -12 -25 0 -13 6 -15 9 -5 9 8 0 22 -4 30 -9z m-1859 -47 c-10
-17 -10 -16 -11 3 0 23 13 41 18 25 2 -6 -1 -18 -7 -28z m159 2 c0 -22 61 -74
88 -75 12 0 22 -4 22 -9 0 -4 10 -19 23 -33 36 -39 67 -80 67 -89 0 -19 -16
-6 -39 30 -15 25 -29 37 -38 34 -8 -3 -22 3 -32 13 -10 11 -29 26 -41 34 -59
38 -92 85 -73 103 11 12 23 8 23 -8z m-90 -16 c0 -6 -4 -7 -10 -4 -5 3 -10 11
-10 16 0 6 5 7 10 4 6 -3 10 -11 10 -16z m-30 -21 c0 9 5 9 18 2 9 -5 34 -16
55 -24 38 -16 53 -42 17 -33 -11 3 -23 1 -26 -4 -3 -5 4 -9 16 -9 13 0 20 -5
17 -12 -4 -12 -36 -14 -64 -3 -7 2 -13 13 -13 24 0 10 -11 26 -25 35 -14 9
-25 24 -25 33 0 14 2 14 15 -3 8 -11 15 -14 15 -6z m165 -69 c4 -6 5 -13 2
-16 -8 -7 -47 7 -47 18 0 13 37 11 45 -2z m95 -145 c0 -49 -5 -69 -25 -98 -14
-20 -25 -41 -25 -46 0 -6 -6 -10 -14 -10 -7 0 -19 -7 -26 -15 -7 -8 -23 -15
-36 -15 -12 0 -26 -4 -29 -10 -3 -5 -17 -10 -31 -10 -14 0 -23 -4 -19 -9 9
-15 -34 -24 -50 -11 -12 10 -18 10 -29 1 -8 -7 -20 -11 -28 -10 -52 10 -168
-24 -258 -76 -13 -8 -26 -12 -29 -9 -7 6 41 54 55 54 6 0 17 7 24 15 7 8 44
24 84 36 39 11 85 25 102 30 17 5 48 9 70 9 108 0 199 33 219 80 18 40 33 118
28 149 -3 27 -2 32 6 21 6 -8 11 -42 11 -76z m1513 -194 c99 -15 182 -56 263
-132 177 -167 230 -381 141 -570 -59 -128 -136 -215 -317 -360 -100 -80 -125
-162 -96 -308 10 -46 14 -86 9 -90 -4 -4 -53 -17 -108 -29 -55 -12 -109 -24
-120 -27 -18 -5 -22 2 -33 53 -24 116 -34 250 -23 309 17 91 56 148 202 293
159 160 199 225 199 322 0 165 -107 316 -237 333 -60 7 -164 -14 -230 -47 -57
-29 -125 -92 -149 -138 -25 -49 -29 -134 -9 -204 9 -33 17 -66 18 -74 1 -9
-36 -30 -108 -60 -60 -25 -116 -50 -124 -55 -22 -14 -47 26 -65 104 -41 178
-1 328 120 459 67 73 139 118 265 167 155 60 262 74 402 54z m-1813 -54 c0 -2
-18 -13 -40 -25 -22 -11 -40 -18 -40 -15 0 2 -9 0 -21 -7 -13 -7 -25 -7 -31
-1 -9 9 12 20 82 40 42 12 50 13 50 8z m-261 -97 c-16 -10 -23 -4 -14 10 3 6
11 8 17 5 6 -4 5 -9 -3 -15z m-68 -23 c-12 -18 -21 -43 -21 -55 0 -12 -4 -20
-10 -16 -10 6 -7 20 17 73 7 17 19 32 24 32 6 0 1 -15 -10 -34z m1932 -67
c-58 -11 -126 -42 -187 -86 -28 -20 -43 -27 -33 -15 48 54 170 112 232 111 25
-1 23 -3 -12 -10z m-1933 -93 c0 -34 -17 -4 -23 39 l-6 40 14 -30 c8 -16 14
-39 15 -49z m753 -11 c-3 -9 -8 -14 -10 -11 -3 3 -2 9 2 15 9 16 15 13 8 -4z
m-693 -47 c19 -17 27 -28 17 -24 -10 3 -22 6 -27 6 -4 0 -15 11 -24 25 -22 34
-9 31 34 -7z m323 15 c-29 -5 -29 -19 -2 -33 50 -27 76 -128 48 -183 -34 -65
-121 -113 -269 -147 -63 -15 -173 -70 -211 -106 -14 -13 -28 -24 -32 -24 -28
0 -149 -183 -150 -227 -1 -46 -17 -18 -17 30 0 24 9 51 22 70 28 41 158 165
181 173 9 3 17 9 17 14 0 15 77 51 207 96 143 49 184 73 218 122 42 61 25 136
-37 168 -24 12 -28 18 -17 25 10 6 4 9 -19 9 -20 0 -31 4 -27 10 3 6 30 9 58
9 29 -1 42 -4 30 -6z m341 -74 c-8 -29 -16 -55 -20 -58 -7 -7 5 53 17 87 15
39 16 24 3 -29z m-541 4 c-7 -2 -21 -2 -30 0 -10 3 -4 5 12 5 17 0 24 -2 18
-5z m631 -198 c59 -36 109 -65 112 -65 3 0 18 -8 32 -18 15 -11 70 -36 122
-57 52 -21 111 -46 131 -56 48 -24 106 -92 112 -132 4 -31 -10 -103 -19 -94
-3 3 -17 -6 -32 -20 -47 -44 -86 -70 -116 -77 -26 -6 -27 -5 -13 9 9 8 21 15
28 15 20 0 78 49 94 80 8 16 15 52 15 80 0 75 -18 90 -210 178 -19 9 -89 47
-155 85 -168 97 -168 97 -191 97 -16 0 -24 -13 -42 -73 -12 -40 -22 -92 -22
-115 0 -23 -4 -42 -10 -42 -5 0 -10 -8 -10 -17 0 -16 2 -16 11 -3 9 12 10 12
5 -3 -3 -10 -6 -48 -6 -83 0 -92 -17 -71 -19 23 -2 73 -9 102 -18 76 -12 -32
-106 -126 -149 -148 -21 -11 -48 -28 -59 -39 -11 -10 -30 -25 -42 -33 -13 -9
-23 -21 -23 -28 0 -7 -7 -15 -15 -19 -8 -3 -15 -12 -15 -20 0 -8 -4 -17 -9
-21 -6 -3 -7 10 -4 32 4 25 15 46 34 61 16 13 27 28 23 33 -3 5 3 12 13 15 87
27 159 82 184 141 18 42 38 193 25 193 -4 0 -12 -12 -18 -27 -9 -23 -12 -25
-15 -10 -8 34 7 67 48 107 61 59 89 56 223 -25z m-829 -245 c-3 -5 -10 -10
-16 -10 -5 0 -9 5 -9 10 0 6 7 10 16 10 8 0 12 -4 9 -10z m665 -149 c0 -24
-14 -41 -34 -41 -12 0 -16 3 -10 8 6 4 13 15 17 25 7 18 27 24 27 8z m2637
-93 c-3 -7 -5 -2 -5 12 0 14 2 19 5 13 2 -7 2 -19 0 -25z m-2650 -60 c-2 -18
-4 -6 -4 27 0 33 2 48 4 33 2 -15 2 -42 0 -60z m-835 10 c21 -23 38 -37 38
-30 0 9 6 8 23 -3 13 -8 62 -28 108 -44 46 -16 109 -40 139 -54 30 -13 65 -28
76 -31 12 -4 29 -15 39 -26 10 -11 25 -20 33 -20 21 0 134 -122 124 -132 -5
-5 -41 23 -80 62 -39 38 -77 70 -84 70 -6 0 0 -12 14 -27 14 -16 33 -45 43
-66 15 -32 16 -46 7 -92 -14 -66 -38 -104 -126 -195 -36 -37 -66 -73 -66 -79
0 -7 -4 -10 -8 -7 -5 3 -7 -8 -4 -23 3 -25 11 -31 62 -46 l58 -17 48 31 c48
32 49 32 17 3 -18 -15 -33 -32 -33 -35 0 -4 26 -7 58 -8 47 0 53 -2 33 -10
-28 -11 -164 -5 -226 10 -36 9 -42 8 -57 -12 -10 -12 -18 -25 -18 -29 0 -11
34 4 46 20 9 13 12 12 16 -6 4 -14 2 -19 -7 -16 -9 4 -15 -12 -20 -56 -8 -65
4 -111 36 -142 20 -19 69 -35 69 -22 0 5 24 10 53 11 28 2 91 10 138 19 119
23 183 9 240 -49 22 -23 47 -54 54 -68 16 -30 22 -114 11 -147 -7 -21 -5 -22
19 -16 27 7 27 7 11 -19 -10 -14 -24 -28 -31 -31 -24 -9 -45 -71 -35 -103 5
-15 12 -40 14 -54 3 -14 15 -36 27 -50 20 -24 24 -24 182 -24 149 0 166 -2
209 -23 68 -34 90 -85 79 -184 -9 -80 -35 -156 -59 -175 -9 -7 -12 -13 -6 -13
5 0 -2 -9 -16 -20 -14 -10 -22 -22 -18 -25 10 -10 133 59 182 101 43 37 66 38
25 1 -33 -30 -133 -98 -196 -133 -54 -29 -72 -57 -31 -46 14 3 19 1 14 -6 -3
-6 2 -13 11 -15 10 -3 1 -3 -19 -2 -21 2 -38 -1 -38 -6 0 -5 5 -9 11 -9 6 0 1
-9 -12 -20 -13 -10 -21 -19 -18 -20 17 -1 271 89 286 101 15 13 15 12 2 -8 -8
-13 -21 -23 -31 -23 -9 0 -19 -4 -22 -9 -3 -4 -31 -16 -63 -26 -32 -10 -71
-23 -88 -30 -16 -7 -45 -18 -62 -25 -18 -7 -44 -23 -57 -37 -21 -20 -24 -33
-23 -78 3 -58 -7 -65 -17 -13 -5 26 -9 30 -16 18 -26 -41 29 -188 80 -211 14
-6 41 -19 59 -28 l35 -16 -37 -3 c-25 -2 -55 6 -97 26 -33 16 -60 25 -60 20 0
-17 -30 13 -30 31 0 9 -7 25 -15 35 -8 10 -12 22 -10 26 3 5 -2 21 -10 36
l-15 29 0 -37 c0 -42 30 -148 42 -148 4 0 8 -6 8 -14 0 -8 44 -61 98 -118 90
-96 136 -164 144 -213 4 -25 -31 -31 -278 -41 -166 -6 -181 -6 -181 10 0 11 5
15 16 10 9 -3 25 -9 36 -12 19 -5 19 -5 3 11 -9 9 -21 17 -27 17 -6 0 -25 16
-42 35 -18 19 -39 35 -47 35 -7 0 -26 6 -40 14 -55 28 -129 46 -192 47 -48 1
-58 3 -40 9 14 4 40 8 58 9 17 1 32 3 32 5 0 3 -9 21 -21 41 -29 49 -39 101
-27 138 13 42 15 51 16 60 1 4 12 22 27 38 14 17 22 36 19 41 -4 7 -2 8 4 4 7
-4 12 -3 12 2 0 6 23 24 50 42 28 18 48 35 45 38 -14 14 -363 -192 -440 -260
-67 -61 -90 -114 -82 -196 3 -31 8 -66 11 -77 4 -11 -1 -4 -11 15 -11 22 -17
59 -17 100 0 53 5 73 26 105 56 87 130 139 467 326 110 60 155 91 157 105 1
10 7 35 13 54 13 40 15 110 3 110 -4 0 -13 14 -21 31 -16 36 -45 49 -112 49
-58 0 -65 15 -12 25 l38 7 -39 19 c-22 10 -48 19 -58 19 -10 0 -18 5 -18 10 0
6 -6 10 -14 10 -8 0 -17 4 -20 9 -7 10 9 8 37 -4 26 -11 33 2 12 25 -17 18
-23 45 -26 108 -1 12 -6 22 -11 22 -16 0 0 98 22 140 24 45 2 37 -65 -25 -38
-36 -78 -67 -87 -71 -10 -3 -18 -12 -18 -20 0 -8 -4 -14 -10 -14 -15 0 -60
-53 -60 -72 0 -9 -4 -20 -10 -23 -15 -9 -12 -67 4 -106 8 -19 33 -51 55 -73
33 -30 47 -37 66 -32 14 4 25 2 25 -4 0 -5 11 -10 25 -10 44 0 99 -31 133 -75
32 -41 42 -75 22 -75 -5 0 -10 6 -10 13 0 16 -47 68 -82 91 -15 10 -70 23
-130 31 -121 16 -164 35 -204 89 -24 34 -28 49 -28 107 0 49 4 71 17 83 9 10
18 23 19 29 0 7 2 17 3 22 2 6 3 16 4 23 0 7 5 11 10 7 9 -5 42 34 67 80 6 11
19 22 29 24 10 2 27 13 36 25 21 24 25 41 7 30 -7 -4 -8 -3 -4 4 4 7 15 12 25
12 10 0 41 23 69 51 74 73 91 150 51 216 -26 42 -51 52 -154 63 -205 22 -305
98 -320 242 -3 29 -2 67 4 83 8 27 9 24 10 -27 1 -31 5 -59 9 -62 5 -3 17 31
27 75 12 55 22 79 32 79 9 0 13 6 9 15 -5 15 23 75 37 75 4 0 10 0 15 -1 4 0
10 10 13 23 3 13 12 22 20 20 8 -2 11 -1 7 3 -7 8 15 35 28 35 4 0 39 32 77
71 71 73 97 118 97 166 0 34 -34 99 -49 95 -12 -2 -27 8 -61 42 -25 25 -56 40
-115 56 -27 7 -62 21 -76 31 -15 11 -49 28 -75 40 -27 11 -53 27 -57 35 -4 8
-13 14 -20 14 -7 0 -19 10 -27 23 -16 24 -31 77 -22 77 3 0 23 -19 44 -42z
m1296 5 c-10 -2 -26 -2 -35 0 -10 3 -2 5 17 5 19 0 27 -2 18 -5z m-1304 -126
c38 -13 63 -26 55 -29 -23 -9 -122 21 -143 44 -23 25 -32 26 88 -15z m853
-109 c-3 -8 -6 -5 -6 6 -1 11 2 17 5 13 3 -3 4 -12 1 -19z m-40 -32 c29 -1 56
-5 59 -9 4 -4 17 -7 29 -7 22 0 110 -53 133 -80 36 -42 90 -130 105 -168 24
-61 9 -75 -17 -16 -31 74 -60 116 -111 162 -26 23 -49 42 -53 43 -8 1 -51 8
-72 12 -8 1 -28 10 -45 19 -16 8 -56 23 -87 32 -61 18 -81 34 -25 21 17 -4 56
-8 84 -9z m2710 -98 c-3 -7 -5 -2 -5 12 0 14 2 19 5 13 2 -7 2 -19 0 -25z m0
-50 c-3 -8 -6 -5 -6 6 -1 11 2 17 5 13 3 -3 4 -12 1 -19z m-2612 -15 c14 -67
39 -172 51 -217 8 -27 12 -51 10 -55 -6 -10 28 -74 44 -82 96 -48 139 -55 180
-27 36 25 56 71 37 86 -13 9 -89 38 -122 45 -13 3 -10 5 11 6 17 0 53 -6 81
-14 150 -45 206 -225 94 -304 -51 -37 -54 -23 -7 30 51 57 58 93 30 151 -18
38 -65 68 -59 38 4 -23 -38 -81 -70 -98 -14 -7 -25 -17 -25 -21 0 -5 -24 -1
-52 10 -78 28 -91 26 -85 -13 9 -55 18 -92 27 -113 5 -11 11 -41 15 -67 3 -26
10 -50 16 -53 12 -8 12 -45 0 -45 -5 0 -13 10 -16 23 -4 12 -12 36 -20 52 -7
17 -25 62 -39 100 -58 153 -64 162 -120 184 -28 10 -63 22 -78 25 -16 4 -27
12 -25 19 1 8 -16 14 -48 17 -41 4 -46 6 -25 12 40 12 110 9 170 -7 30 -8 57
-15 59 -15 2 0 0 17 -3 38 -4 20 -9 51 -11 67 -6 35 -8 49 -29 165 -9 47 -16
86 -16 88 0 1 4 2 10 2 5 0 12 -12 15 -27z m1527 -122 c16 -62 27 -116 24
-118 -5 -6 -280 -73 -283 -69 -4 4 -52 240 -50 242 5 6 262 62 271 60 5 -1 22
-53 38 -115z m-1849 -46 c-3 -9 -8 -14 -10 -11 -3 3 -2 9 2 15 9 16 15 13 8
-4z m-378 -65 c-10 -11 -21 -17 -24 -14 -3 3 3 12 13 20 28 20 32 17 11 -6z
m-79 -82 c-3 -20 -25 -54 -26 -40 0 14 18 52 24 52 3 0 3 -6 2 -12z m214 -118
c0 -5 -2 -10 -4 -10 -3 0 -8 5 -11 10 -3 6 -1 10 4 10 6 0 11 -4 11 -10z m-33
-22 c-3 -8 -6 -5 -6 6 -1 11 2 17 5 13 3 -3 4 -12 1 -19z m3180 0 c-3 -8 -6
-5 -6 6 -1 11 2 17 5 13 3 -3 4 -12 1 -19z m-2379 -323 c-3 -3 -9 2 -12 12 -6
14 -5 15 5 6 7 -7 10 -15 7 -18z m31 -60 c11 -26 11 -28 -2 -15 -8 8 -18 26
-22 40 -9 32 7 15 24 -25z m28 -77 c-3 -8 -6 -5 -6 6 -1 11 2 17 5 13 3 -3 4
-12 1 -19z m46 -68 c4 -17 3 -19 -9 -9 -8 6 -14 18 -14 26 0 20 16 8 23 -17z
m78 -132 c11 -21 11 -22 -4 -9 -10 7 -17 17 -17 22 0 15 9 10 21 -13z m64 -98
c10 -11 14 -20 9 -20 -5 0 -15 9 -22 20 -7 11 -11 20 -9 20 2 0 12 -9 22 -20z
m2858 -217 c13 -22 0 -61 -23 -68 -27 -9 -32 -4 -80 67 -54 78 -72 122 -64
153 6 25 10 22 83 -56 42 -45 80 -88 84 -96z m-3649 109 c2 -4 1 -14 -3 -21
-6 -9 -10 -7 -14 8 -5 20 7 29 17 13z m881 -13 c11 -17 -1 -21 -15 -4 -8 9 -8
15 -2 15 6 0 14 -5 17 -11z m1379 -114 c-10 -8 -23 -15 -28 -15 -6 0 -1 7 10
15 10 8 23 15 28 15 6 0 1 -7 -10 -15z m213 -17 c-3 -7 -5 -2 -5 12 0 14 2 19
5 13 2 -7 2 -19 0 -25z m115 10 c-7 -7 -12 -8 -12 -2 0 14 12 26 19 19 2 -3
-1 -11 -7 -17z m-386 -33 c-3 -9 -11 -13 -16 -10 -8 5 -7 11 1 21 14 18 24 11
15 -11z m349 -42 c-9 -15 -13 -19 -10 -8 4 11 10 29 13 40 3 11 7 14 9 8 3 -7
-3 -24 -12 -40z m-375 26 c0 -6 6 -9 14 -6 7 3 19 0 26 -6 10 -9 11 -9 6 1 -4
7 -1 12 7 12 8 0 17 -6 20 -14 5 -12 51 -10 93 5 5 2 26 -5 47 -16 l36 -19
-46 -56 c-55 -65 -69 -80 -60 -64 4 6 -1 19 -11 27 -17 15 -18 15 -18 -8 0
-13 3 -22 7 -19 4 2 10 0 14 -6 3 -5 -12 -28 -34 -50 -23 -24 -42 -36 -46 -30
-4 6 -2 17 5 25 9 11 7 12 -8 8 -18 -4 -27 -33 -10 -33 4 0 8 -5 8 -12 0 -15
-120 -131 -127 -124 -4 3 2 15 12 26 17 18 14 25 -9 21 -4 -1 -14 3 -21 9 -9
7 -16 6 -25 -5 -7 -8 -9 -15 -4 -15 5 0 3 -4 -5 -9 -18 -11 -51 -2 -51 14 0 8
14 16 30 20 17 4 30 11 30 17 0 6 11 8 26 4 23 -6 25 -5 18 16 -6 20 -5 21 10
9 9 -7 16 -23 16 -34 0 -19 1 -19 18 -4 10 10 22 14 27 10 4 -5 5 -2 1 5 -4 7
-11 10 -16 7 -4 -2 -19 4 -34 16 -21 17 -34 19 -73 13 -27 -3 -55 -10 -64 -15
-25 -13 -61 1 -54 20 4 9 8 21 9 28 1 7 5 16 9 19 10 11 9 24 -3 24 -5 0 -10
-6 -10 -13 0 -10 -11 -13 -37 -11 -50 4 -51 4 -28 14 18 8 17 9 -7 9 -37 1
-36 27 1 34 28 6 178 88 255 141 42 28 56 32 56 15z m1774 -103 c110 -58 300
-149 422 -204 314 -140 573 -298 632 -384 94 -138 189 -404 368 -1038 24 -85
53 -186 65 -223 11 -38 18 -71 16 -74 -5 -5 -29 70 -82 257 -208 734 -325
1040 -428 1124 -131 106 -321 214 -577 326 -169 74 -565 271 -614 306 -48 34
9 8 198 -90z m-4253 -8 c13 -10 27 -18 33 -18 5 0 7 -3 4 -6 -14 -14 -110 53
-131 91 -6 13 4 8 30 -15 22 -19 51 -43 64 -52z m1390 55 c13 -16 12 -17 -3
-4 -10 7 -18 15 -18 17 0 8 8 3 21 -13z m-1101 -13 c-19 -13 -30 -13 -30 0 0
6 10 10 23 10 18 0 19 -2 7 -10z m2452 -64 c-6 -36 -32 -115 -58 -176 -43
-100 -52 -115 -93 -143 -25 -17 -93 -70 -149 -118 -113 -94 -172 -129 -220
-129 -38 0 -62 9 -62 23 0 6 103 114 229 241 126 127 257 264 291 304 34 40
65 71 67 68 3 -2 0 -34 -5 -70z m-1311 37 c13 -16 12 -17 -3 -4 -10 7 -18 15
-18 17 0 8 8 3 21 -13z m2597 8 c81 -44 379 -183 517 -241 305 -129 461 -211
562 -296 28 -24 56 -44 62 -44 28 0 5 -17 -58 -43 -65 -26 -128 -79 -211 -176
-11 -13 -22 -22 -25 -19 -3 3 29 40 70 84 41 43 75 82 75 86 0 22 -16 38 -39
38 -20 0 -23 2 -11 10 38 24 -105 106 -385 220 -110 45 -225 94 -255 109 -89
44 -273 143 -300 161 -60 40 -106 57 -140 52 l-35 -5 27 22 c54 43 112 60 146
42z m-3951 -57 c-3 -3 -12 -4 -19 -1 -8 3 -5 6 6 6 11 1 17 -2 13 -5z m988 -4
c-3 -5 -23 -9 -43 -9 l-37 2 35 7 c52 11 52 11 45 0z m1062 -56 c-3 -3 -12 -4
-19 -1 -8 3 -5 6 6 6 11 1 17 -2 13 -5z m-536 -31 c13 -16 12 -17 -3 -4 -10 7
-18 15 -18 17 0 8 8 3 21 -13z m2176 11 c-3 -3 -12 -4 -19 -1 -8 3 -5 6 6 6
11 1 17 -2 13 -5z m-1034 -89 c-3 -9 -8 -14 -10 -11 -3 3 -2 9 2 15 9 16 15
13 8 -4z m-328 -45 c-3 -5 -13 -10 -21 -10 -8 0 -12 5 -9 10 3 6 13 10 21 10
8 0 12 -4 9 -10z m-19 -57 c-10 -10 -19 5 -10 18 6 11 8 11 12 0 2 -7 1 -15
-2 -18z m1071 11 c-3 -3 -12 -4 -19 -1 -8 3 -5 6 6 6 11 1 17 -2 13 -5z
m-1463 -51 c8 -19 2 -16 -25 13 -23 25 -23 26 -2 13 13 -7 25 -19 27 -26z
m354 2 c-18 -18 -25 -19 -31 -9 -4 8 -15 14 -23 14 -8 0 -12 5 -9 11 5 7 13 5
25 -6 18 -16 38 -5 26 14 -4 5 3 7 15 4 20 -6 20 -6 -3 -28z m-1484 9 c5 -14
4 -15 -9 -4 -17 14 -19 20 -6 20 5 0 12 -7 15 -16z m1916 -4 c0 -5 -8 -10 -17
-10 -15 0 -16 2 -3 10 19 12 20 12 20 0z m-84 -55 c-14 -14 -28 -25 -31 -25
-3 0 2 11 11 25 9 14 23 25 31 25 9 0 6 -8 -11 -25z m-630 -52 c-6 -6 -45 37
-46 49 0 4 12 -4 26 -19 14 -14 23 -28 20 -30z m710 -1055 c-8 -1466 -15
-1901 -29 -1910 -7 -4 -23 -8 -36 -8 l-24 0 7 763 c3 419 7 1068 7 1442 1 374
5 708 8 743 7 64 19 82 55 82 17 0 18 -34 12 -1112z m-192 1071 c-28 -55 -83
-138 -110 -164 -14 -14 -60 -43 -103 -64 -75 -38 -78 -39 -104 -23 -15 9 -27
19 -27 22 0 3 15 11 33 19 46 20 139 88 232 170 44 39 83 71 88 71 4 0 0 -14
-9 -31z m-1509 -33 c19 -8 35 -17 35 -20 0 -5 -71 22 -79 30 -9 8 11 4 44 -10z
m-895 -10 c0 -2 -7 -7 -16 -10 -8 -3 -12 -2 -9 4 6 10 25 14 25 6z m1004 -60
c31 -35 66 -82 66 -89 0 -4 -4 -7 -10 -7 -5 0 -10 8 -10 17 0 10 -26 42 -57
72 -32 30 -47 48 -33 41 14 -7 33 -23 44 -34z m993 29 c0 -8 -4 -12 -9 -9 -5
3 -6 10 -3 15 9 13 12 11 12 -6z m463 11 c0 -3 -4 -8 -10 -11 -5 -3 -10 -1
-10 4 0 6 5 11 10 11 6 0 10 -2 10 -4z m-1594 -31 c26 -19 -1 -20 -36 0 -23
13 -23 14 -4 15 11 0 29 -7 40 -15z m-926 -1 c0 -8 -19 -13 -24 -6 -3 5 1 9 9
9 8 0 15 -2 15 -3z m5125 -107 c0 -1 8 -15 18 -32 50 -86 117 -251 117 -290 0
-12 5 -26 11 -32 6 -6 9 -21 7 -34 -3 -20 -6 -18 -16 16 -8 22 -17 49 -22 60
-4 11 -16 40 -25 65 -28 76 -142 210 -178 210 -40 0 -104 -46 -195 -140 -55
-58 -86 -101 -245 -340 -49 -75 -73 -104 -49 -60 11 19 32 58 47 85 62 113
185 285 263 366 99 104 165 144 227 134 21 -3 39 -7 40 -8z m-3998 -44 c-3
-10 -5 -4 -5 12 0 17 2 24 5 18 2 -7 2 -21 0 -30z m1576 -568 c3 -549 -4
-1040 -22 -1440 l-9 -190 4 180 c2 99 6 595 10 1103 3 508 8 922 10 920 2 -2
5 -260 7 -573z m-2673 497 c-16 -17 -30 -26 -30 -21 0 13 50 63 56 56 3 -2 -9
-18 -26 -35z m2530 -629 c0 -361 -2 -654 -4 -652 -9 9 -10 1309 -1 1309 3 0 5
-295 5 -657z m-2560 538 c0 -22 -4 -43 -10 -46 -6 -4 -10 12 -10 39 0 25 5 46
10 46 6 0 10 -18 10 -39z m2393 22 c-7 -2 -19 -2 -25 0 -7 3 -2 5 12 5 14 0
19 -2 13 -5z m-2641 -43 c-4 -3 -15 -27 -25 -55 -13 -39 -15 -42 -11 -15 10
63 26 104 35 89 4 -7 5 -16 1 -19z m4975 15 c-9 -8 -17 -20 -20 -27 -2 -7 -7
-10 -10 -7 -8 7 21 49 34 49 6 0 4 -7 -4 -15z m-3497 -60 c153 -16 394 -65
414 -85 14 -14 11 -410 -4 -555 -30 -275 -170 -710 -264 -822 -48 -57 -209
-93 -421 -93 -233 0 -511 45 -579 93 -71 50 -198 404 -255 712 -44 236 -74
581 -57 649 3 14 19 32 34 39 48 25 289 59 567 80 88 7 429 -4 565 -18z
m-1223 -32 c-3 -10 -5 -4 -5 12 0 17 2 24 5 18 2 -7 2 -21 0 -30z m4633 -33
c-6 -11 -13 -20 -16 -20 -2 0 0 9 6 20 6 11 13 20 16 20 2 0 0 -9 -6 -20z
m-4937 -20 c-3 -12 -8 -19 -11 -16 -5 6 5 36 12 36 2 0 2 -9 -1 -20z m329 -27
c-3 -16 -7 -22 -10 -15 -4 13 4 42 11 42 2 0 2 -12 -1 -27z m5268 -61 c0 -9 7
-35 14 -57 8 -22 12 -44 8 -49 -3 -5 -11 13 -19 40 -25 89 -27 97 -14 90 6 -4
11 -15 11 -24z m-5260 -109 c0 -33 -3 -44 -13 -40 -9 3 -13 -6 -14 -32 -1 -34
0 -35 10 -11 10 24 10 24 17 -15 14 -77 19 -175 10 -175 -6 0 -10 5 -10 12 0
7 -14 36 -32 65 -37 60 -79 81 -124 61 -22 -10 -28 -8 -50 13 l-25 25 30 41
c39 54 97 93 138 93 17 0 35 5 38 10 13 21 25 -2 25 -47z m-353 -33 c24 -10
64 -39 90 -63 27 -24 70 -60 97 -80 91 -69 117 -131 78 -187 -19 -28 -62 -37
-89 -20 -15 9 -13 10 13 6 37 -6 74 16 74 45 0 11 -4 18 -9 15 -17 -11 -126
17 -139 36 -8 10 -25 18 -42 18 -16 0 -32 5 -35 10 -3 6 -15 10 -26 10 -11 0
-27 7 -35 15 -9 8 -25 14 -37 14 -17 -1 -18 -2 -4 -6 20 -5 23 -23 3 -23 -18
0 -106 87 -106 105 0 8 5 17 10 20 6 3 10 14 10 25 0 27 54 80 82 80 12 0 42
-9 65 -20z m5717 -206 c14 -50 26 -102 25 -115 -1 -21 -2 -20 -9 6 -4 17 -20
71 -35 120 -40 132 -55 187 -54 205 0 17 34 -82 73 -216z m-883 153 c-10 -9
-11 -8 -5 6 3 10 9 15 12 12 3 -3 0 -11 -7 -18z m-20 -40 c-10 -9 -11 -8 -5 6
3 10 9 15 12 12 3 -3 0 -11 -7 -18z m-5030 -156 c-6 -10 -8 -21 -5 -23 3 -3
-2 -8 -11 -11 -19 -8 -19 -2 1 28 19 29 29 33 15 6z m242 -3 c18 -12 34 -26
35 -30 2 -4 8 -8 13 -8 6 0 27 -12 47 -26 29 -20 31 -24 12 -19 -23 7 -160 94
-160 101 0 10 25 2 53 -18z m1964 -60 c-3 -8 -6 -5 -6 6 -1 11 2 17 5 13 3 -3
4 -12 1 -19z m-2246 -9 c-9 -26 27 -71 61 -76 36 -6 32 -10 -27 -32 -31 -12
-70 -28 -85 -36 l-29 -15 21 48 c45 102 59 132 63 132 2 0 1 -10 -4 -21z
m6031 -96 c27 -110 12 -84 -27 45 -3 12 -3 22 2 22 4 0 16 -30 25 -67z m-5623
5 c41 -23 70 -48 55 -48 -6 0 -19 9 -29 20 -10 11 -22 17 -27 14 -5 -3 -16 0
-24 7 -22 18 -25 7 -13 -47 9 -40 16 -50 33 -52 15 -1 17 1 7 7 -19 12 -24 61
-6 61 22 0 57 -78 50 -111 -10 -43 -53 -39 -46 4 1 5 -15 -1 -36 -12 -34 -18
-95 -34 -278 -76 -72 -16 -111 -30 -119 -44 -8 -13 -33 -4 -40 15 -3 8 1 32
10 52 19 42 26 102 13 102 -5 0 -9 6 -9 14 0 12 93 56 119 56 5 0 34 11 66 25
32 14 74 30 94 35 50 12 137 2 180 -22z m1818 -45 c-3 -10 -5 -4 -5 12 0 17 2
24 5 18 2 -7 2 -21 0 -30z m-10 -45 c-3 -8 -6 -5 -6 6 -1 11 2 17 5 13 3 -3 4
-12 1 -19z m-1634 -54 c37 -36 64 -71 60 -77 -5 -9 -102 89 -103 105 0 4 -9
10 -20 13 -19 6 -28 25 -12 25 4 0 38 -30 75 -66z m1624 14 c-3 -8 -6 -5 -6 6
-1 11 2 17 5 13 3 -3 4 -12 1 -19z m3860 -10 c-3 -8 -6 -5 -6 6 -1 11 2 17 5
13 3 -3 4 -12 1 -19z m-6226 -39 c-5 -13 -10 -19 -10 -12 -1 15 10 45 15 40 3
-2 0 -15 -5 -28z m48 -93 c-9 -8 -10 -3 -5 23 3 18 7 41 8 50 1 9 3 -1 5 -23
3 -22 -1 -43 -8 -50z m6211 49 c0 -5 -5 -3 -10 5 -5 8 -10 20 -10 25 0 6 5 3
10 -5 5 -8 10 -19 10 -25z m-3916 -9 c-3 -15 -8 -25 -11 -23 -2 3 -1 17 3 31
3 15 8 25 11 23 2 -3 1 -17 -3 -31z m-2363 -3 c-12 -20 -14 -14 -5 12 4 9 9
14 11 11 3 -2 0 -13 -6 -23z m803 -54 c-37 -39 -44 -28 -8 14 16 18 31 29 33
24 2 -5 -9 -22 -25 -38z m5536 -122 c29 -86 53 -163 54 -170 2 -6 6 -19 9 -27
9 -26 26 -104 23 -108 -2 -1 -15 37 -30 85 -15 48 -41 131 -57 183 -62 191
-68 213 -59 204 5 -5 32 -80 60 -167z m-5416 62 c18 -51 37 -102 41 -111 4
-10 3 -18 -3 -18 -16 0 -89 63 -107 93 -16 26 -16 32 -2 65 8 21 18 46 21 56
4 10 8 17 11 14 2 -2 20 -47 39 -99z m-943 68 c-10 -9 -11 -8 -5 6 3 10 9 15
12 12 3 -3 0 -11 -7 -18z m329 -11 c0 -9 -30 -14 -35 -6 -4 6 3 10 14 10 12 0
21 -2 21 -4z m2026 -35 c-15 -52 -28 -65 -14 -15 10 40 16 54 23 54 1 0 -2
-18 -9 -39z m-2390 -30 c-15 -28 -28 -51 -31 -51 -3 0 7 25 22 55 15 30 29 53
31 51 2 -2 -8 -27 -22 -55z m299 49 c-3 -5 -14 -10 -23 -10 -13 0 -14 -2 -3
-12 9 -10 59 -12 189 -11 102 1 171 -2 163 -7 -8 -4 -20 -6 -27 -3 -10 3 -13
-9 -11 -48 l1 -52 -94 -23 c-170 -41 -207 -59 -195 -91 3 -8 -5 -13 -20 -13
-14 0 -25 -4 -25 -10 0 -14 -43 -13 -58 2 -28 28 -4 228 32 265 21 22 84 33
71 13z m6164 -40 c0 -10 -3 -8 -9 5 -12 27 -12 43 0 25 5 -8 9 -22 9 -30z
m-5709 20 c0 -5 -7 -7 -15 -4 -8 4 -15 8 -15 10 0 2 7 4 15 4 8 0 15 -4 15
-10z m35 0 c-3 -5 -12 -10 -18 -10 -7 0 -6 4 3 10 19 12 23 12 15 0z m-658
-67 c-2 -16 -4 -5 -4 22 0 28 2 40 4 28 2 -13 2 -35 0 -50z m6352 -18 l0 -20
-9 20 c-5 11 -9 27 -9 35 -1 13 0 13 9 0 5 -8 9 -24 9 -35z m-5852 13 c-3 -8
-6 -5 -6 6 -1 11 2 17 5 13 3 -3 4 -12 1 -19z m1730 -10 c-3 -8 -6 -5 -6 6 -1
11 2 17 5 13 3 -3 4 -12 1 -19z m-1647 -20 c0 -5 -7 -3 -15 6 -8 8 -15 18 -15
22 0 3 7 1 15 -6 8 -7 15 -17 15 -22z m-74 -45 c-11 -27 -22 -12 -18 24 4 35
5 36 14 14 5 -14 6 -31 4 -38z m2721 10 c-3 -10 -5 -2 -5 17 0 19 2 27 5 18 2
-10 2 -26 0 -35z m-1017 -13 c-6 -23 -13 -40 -15 -38 -2 2 1 23 7 46 6 24 13
41 15 38 2 -2 -1 -23 -7 -46z m4173 -42 c56 -182 89 -299 85 -303 -2 -2 -28
78 -58 178 -29 100 -55 188 -58 195 -2 6 -2 12 1 12 3 0 17 -37 30 -82z
m-5807 45 c-10 -10 -19 5 -10 18 6 11 8 11 12 0 2 -7 1 -15 -2 -18z m84 -8 c8
-9 8 -15 0 -20 -5 -3 -10 -2 -10 4 0 5 -9 13 -20 16 -11 3 -20 10 -20 15 0 12
37 0 50 -15z m-673 -22 c-3 -10 -5 -4 -5 12 0 17 2 24 5 18 2 -7 2 -21 0 -30z
m543 21 c0 -8 -5 -12 -10 -9 -6 4 -8 11 -5 16 9 14 15 11 15 -7z m267 -6 c-3
-8 -6 -5 -6 6 -1 11 2 17 5 13 3 -3 4 -12 1 -19z m-330 -44 c-3 -3 -12 -4 -19
-1 -8 3 -5 6 6 6 11 1 17 -2 13 -5z m243 -4 c0 -13 -11 -13 -30 0 -12 8 -11
10 8 10 12 0 22 -4 22 -10z m66 -16 c-9 -9 -20 -14 -23 -10 -4 3 2 13 13 20
25 18 31 12 10 -10z m-175 0 c22 -10 25 -13 9 -9 -14 4 -41 10 -60 15 -30 7
-31 8 -9 9 15 0 42 -6 60 -15z m-242 2 c-2 -2 -22 -6 -44 -9 -27 -4 -35 -3
-25 3 14 9 79 15 69 6z m331 -16 c22 -7 20 -8 -12 -7 -21 1 -38 5 -38 9 0 10
16 9 50 -2z m-713 -32 c-3 -7 -5 -2 -5 12 0 14 2 19 5 13 2 -7 2 -19 0 -25z
m285 -8 c18 -11 39 -20 46 -20 22 0 82 -73 82 -100 -1 -44 -33 -71 -121 -99
-56 -18 -76 -14 -83 14 -4 14 -11 25 -16 25 -19 0 -30 48 -19 77 7 20 7 34 -2
50 -7 13 -10 24 -8 26 10 6 84 47 86 47 2 0 17 -9 35 -20z m118 -14 c0 -11
-19 -15 -25 -6 -3 5 1 10 9 10 9 0 16 -2 16 -4z m-403 -58 c-2 -13 -4 -5 -4
17 -1 22 1 32 4 23 2 -10 2 -28 0 -40z m555 40 c-9 -9 -15 -9 -24 0 -9 9 -7
12 12 12 19 0 21 -3 12 -12z m143 3 c-3 -5 -19 -8 -36 -6 -48 6 -48 15 0 15
23 0 40 -4 36 -9z m72 -33 c-3 -7 -5 -2 -5 12 0 14 2 19 5 13 2 -7 2 -19 0
-25z m-7 -43 c0 -21 -65 -85 -86 -85 -20 0 -14 8 18 24 13 6 32 26 43 43 23
37 25 38 25 18z m1351 -384 c-6 -202 -11 -429 -11 -504 0 -124 -2 -137 -19
-147 -11 -5 -27 -7 -37 -3 -16 6 -17 25 -11 261 4 141 7 355 7 476 l0 222 38
40 c20 23 39 37 40 32 2 -5 -1 -174 -7 -377z m36 142 c-1 -43 -3 -8 -3 77 0
85 2 120 3 78 2 -43 2 -113 0 -155z m-2267 127 c-33 -35 -66 -76 -72 -92 -7
-15 -17 -28 -21 -28 -5 0 2 19 15 41 27 48 131 164 136 151 1 -5 -24 -38 -58
-72z m2104 0 c-6 -6 -19 -7 -30 -3 -17 6 -17 8 6 13 29 8 38 4 24 -10z m33
-12 c-3 -8 -6 -5 -6 6 -1 11 2 17 5 13 3 -3 4 -12 1 -19z m-80 -4 c-3 -3 -12
-4 -19 -1 -8 3 -5 6 6 6 11 1 17 -2 13 -5z m-134 -21 c-7 -2 -19 -2 -25 0 -7
3 -2 5 12 5 14 0 19 -2 13 -5z m-156 -9 c-3 -3 -12 -4 -19 -1 -8 3 -5 6 6 6
11 1 17 -2 13 -5z m370 -206 c-1 -40 -3 -8 -3 72 0 80 2 112 3 73 2 -40 2
-106 0 -145z m4460 15 c-3 -10 -5 -4 -5 12 0 17 2 24 5 18 2 -7 2 -21 0 -30z
m-4330 -5 c-3 -8 -6 -5 -6 6 -1 11 2 17 5 13 3 -3 4 -12 1 -19z m0 -60 c-3 -7
-5 -2 -5 12 0 14 2 19 5 13 2 -7 2 -19 0 -25z m4365 -43 c3 -14 1 -25 -3 -25
-5 0 -9 11 -9 25 0 14 2 25 4 25 2 0 6 -11 8 -25z m15 -87 c-3 -7 -5 -2 -5 12
0 14 2 19 5 13 2 -7 2 -19 0 -25z m-4390 -20 c-3 -8 -6 -5 -6 6 -1 11 2 17 5
13 3 -3 4 -12 1 -19z m4410 -40 c-3 -8 -6 -5 -6 6 -1 11 2 17 5 13 3 -3 4 -12
1 -19z m10 -50 c-3 -7 -5 -2 -5 12 0 14 2 19 5 13 2 -7 2 -19 0 -25z m-4420
-50 c-2 -13 -4 -5 -4 17 -1 22 1 32 4 23 2 -10 2 -28 0 -40z m-2597 29 c0 -2
-10 -12 -22 -23 l-23 -19 19 23 c18 21 26 27 26 19z m-70 -51 c0 -2 -8 -10
-17 -17 -16 -13 -17 -12 -4 4 13 16 21 21 21 13z m7117 -48 c-3 -8 -6 -5 -6 6
-1 11 2 17 5 13 3 -3 4 -12 1 -19z m-7198 -10 c-2 -2 -27 -23 -54 -48 l-50
-45 45 48 c24 26 48 47 54 47 5 0 7 -1 5 -2z m7214 -38 c3 -11 1 -18 -4 -14
-5 3 -9 12 -9 20 0 20 7 17 13 -6z m-4466 -62 c-3 -8 -6 -5 -6 6 -1 11 2 17 5
13 3 -3 4 -12 1 -19z m0 -40 c-3 -8 -6 -5 -6 6 -1 11 2 17 5 13 3 -3 4 -12 1
-19z m4512 -98 c-1 -26 -16 22 -22 70 l-7 45 15 -50 c8 -27 14 -57 14 -65z
m-4552 -137 c-5 -96 -7 -108 -24 -108 -16 0 -18 11 -21 95 -3 99 -2 101 46
119 2 0 1 -47 -1 -106z m4577 61 c3 -8 2 -12 -4 -9 -6 3 -10 10 -10 16 0 14 7
11 14 -7z m-3354 -79 c0 -76 -2 -85 -19 -85 -16 0 -19 10 -24 73 -5 72 2 97
29 97 11 0 14 -19 14 -85z m20 -115 c0 -5 -5 -10 -11 -10 -5 0 -7 5 -4 10 3 6
8 10 11 10 2 0 4 -4 4 -10z m1769 -229 c7 -84 10 -155 8 -157 -6 -6 -26 154
-32 261 -4 57 -2 83 4 70 4 -11 14 -89 20 -174z m58 -518 c-3 -10 -5 -4 -5 12
0 17 2 24 5 18 2 -7 2 -21 0 -30z m-57 -178 c-7 -8 -17 -15 -23 -15 -6 0 -2 7
9 15 25 19 30 19 14 0z m-3775 -185 c13 -6 15 -9 5 -9 -8 0 -22 4 -30 9 -18
12 -2 12 25 0z m1178 -147 c-7 -2 -19 -2 -25 0 -7 3 -2 5 12 5 14 0 19 -2 13
-5z m700 -40 c-7 -2 -19 -2 -25 0 -7 3 -2 5 12 5 14 0 19 -2 13 -5z m977 -28
c0 -8 -2 -15 -4 -15 -2 0 -6 7 -10 15 -3 8 -1 15 4 15 6 0 10 -7 10 -15z"/>
<path d="M2919 8073 c-13 -16 -12 -17 4 -4 9 7 17 15 17 17 0 8 -8 3 -21 -13z"/>
<path d="M2976 8043 c-3 -3 -6 -22 -6 -41 0 -32 11 -38 16 -9 1 7 5 19 9 28 7
17 -7 34 -19 22z"/>
<path d="M2330 6620 c0 -28 43 -130 56 -130 2 0 0 9 -6 19 -7 14 -7 22 0 26 6
4 9 3 8 -2 -4 -17 14 -53 28 -53 24 0 15 24 -22 58 -23 21 -37 45 -41 68 -7
44 -23 55 -23 14z"/>
<path d="M2261 6602 c0 -7 -5 -10 -11 -7 -25 16 -6 -45 28 -86 43 -53 119
-100 106 -65 -3 9 -11 16 -18 16 -11 0 -44 29 -76 67 -8 9 -18 33 -21 53 -3
19 -7 29 -8 22z"/>
<path d="M2687 6516 c-26 -7 -36 -14 -32 -24 3 -7 5 -17 5 -22 0 -5 16 -14 35
-21 22 -8 35 -20 35 -30 0 -11 13 -22 33 -28 40 -14 77 -60 78 -98 0 -15 4
-37 8 -48 7 -16 9 -13 15 19 5 26 11 36 21 32 37 -14 18 137 -20 158 -44 25
-68 46 -51 46 9 0 16 -4 16 -10 0 -5 11 -10 25 -10 15 0 25 -6 25 -14 0 -8 7
-17 15 -20 9 -3 21 -20 27 -38 11 -31 11 -31 20 -8 12 32 -11 63 -75 100 -55
32 -103 36 -180 16z"/>
<path d="M2947 6370 c-12 -50 -17 -124 -8 -115 18 20 29 73 21 106 -7 32 -7
33 -13 9z"/>
<path d="M2770 6007 c-20 -31 -30 -147 -13 -147 7 0 13 -4 13 -10 0 -5 -4 -10
-9 -10 -11 0 1 -47 20 -77 14 -23 58 -48 67 -38 3 3 -11 22 -31 43 -42 43 -53
80 -12 42 14 -13 25 -30 25 -37 0 -8 4 -12 9 -9 13 9 32 -19 25 -37 -6 -17 40
-47 72 -47 13 0 10 5 -10 21 -15 11 -33 18 -41 15 -15 -5 -21 5 -9 16 9 10 77
-22 99 -47 33 -37 57 -46 73 -27 12 15 13 14 9 -10 -3 -20 1 -29 14 -33 29 -9
43 -43 27 -62 -11 -14 -10 -16 15 -11 22 4 27 2 27 -15 0 -16 -3 -17 -15 -7
-12 10 -13 6 -8 -23 4 -28 1 -39 -17 -54 -12 -10 -26 -27 -32 -37 -8 -15 6
-10 58 19 38 21 71 39 73 41 2 2 -7 14 -20 25 -18 17 -20 21 -6 16 14 -5 20
-1 24 13 3 11 8 20 12 20 3 0 7 11 7 25 1 14 -2 25 -7 25 -14 0 -10 22 7 41
11 12 14 25 9 36 -5 10 -7 22 -6 27 5 20 -35 77 -56 83 -13 3 -23 9 -23 13 0
5 -9 11 -19 15 -11 3 -18 12 -15 19 5 14 -42 36 -75 36 -9 0 -43 14 -75 30
-41 22 -62 28 -70 20 -7 -7 -5 -10 6 -10 9 0 23 -9 31 -20 8 -11 29 -25 48
-31 54 -17 79 -31 79 -46 0 -20 -26 -16 -68 11 -21 13 -53 27 -71 31 -20 4
-35 14 -38 26 -3 10 -10 19 -15 19 -14 0 -47 42 -48 61 0 9 -6 31 -13 47 l-13
31 -14 -22z m338 -223 c12 -4 22 -12 22 -19 0 -11 -6 -11 -30 -2 -46 18 -40
34 8 21z m75 -52 c15 -16 15 -19 2 -19 -8 0 -22 9 -32 19 -14 15 -14 18 -1 18
8 0 22 -8 31 -18z m1 -117 c8 -49 0 -89 -15 -80 -5 4 -6 17 -3 29 6 26 -31 70
-49 59 -6 -4 -7 -1 -3 6 5 7 14 10 22 7 8 -3 17 1 20 9 11 27 22 16 28 -30z"/>
<path d="M2831 5994 c0 -11 3 -14 6 -6 3 7 2 16 -1 19 -3 4 -6 -2 -5 -13z"/>
<path d="M2605 5990 c-3 -5 -16 -10 -28 -10 -15 0 -18 -3 -10 -8 18 -11 -12
-53 -32 -45 -16 6 -105 -73 -105 -94 0 -6 -5 -13 -11 -15 -5 -2 -11 -11 -13
-20 -1 -10 -5 -21 -9 -24 -4 -4 -7 -35 -6 -68 l1 -61 9 44 c5 25 12 47 17 50
5 3 8 20 8 36 -1 23 3 30 17 29 9 -1 17 3 18 10 3 43 34 95 57 96 8 0 10 -5 5
-12 -4 -7 20 10 54 37 34 28 62 53 62 58 1 11 -27 9 -34 -3z"/>
<path d="M3243 5943 c9 -2 23 -2 30 0 6 3 -1 5 -18 5 -16 0 -22 -2 -12 -5z"/>
<path d="M3316 5929 c3 -5 12 -9 21 -9 9 0 26 -8 37 -17 21 -18 21 -18 3 3
-17 21 -72 41 -61 23z"/>
<path d="M3240 5900 c0 -6 4 -10 9 -10 5 0 29 -18 53 -40 23 -22 49 -40 56
-40 6 0 12 -6 12 -14 0 -8 8 -22 17 -32 17 -17 18 -16 24 21 7 44 0 59 -43 94
-30 24 -128 40 -128 21z"/>
<path d="M3150 5823 c8 -3 23 -10 33 -15 12 -6 17 -5 17 7 0 10 -10 15 -32 14
-18 0 -26 -3 -18 -6z"/>
<path d="M3320 5781 c0 -5 5 -13 10 -16 6 -3 10 -2 10 4 0 5 -4 13 -10 16 -5
3 -10 2 -10 -4z"/>
<path d="M3240 5770 c0 -5 5 -10 10 -10 6 0 10 5 10 10 0 6 -4 10 -10 10 -5 0
-10 -4 -10 -10z"/>
<path d="M3340 5714 c0 -9 -10 -29 -21 -46 -23 -32 -42 -98 -29 -98 5 0 12 9
15 20 4 11 10 18 15 15 5 -3 12 7 15 22 4 15 10 36 16 45 12 23 12 58 -1 58
-5 0 -10 -7 -10 -16z"/>
<path d="M2443 5601 c-1 -12 2 -19 7 -16 5 3 13 -3 19 -12 6 -10 11 -13 11 -7
0 7 -8 22 -18 34 l-18 22 -1 -21z"/>
<path d="M2920 5600 c0 -5 7 -10 16 -10 8 0 12 5 9 10 -3 6 -10 10 -16 10 -5
0 -9 -4 -9 -10z"/>
<path d="M2966 5575 c4 -8 8 -15 10 -15 2 0 4 7 4 15 0 8 -4 15 -10 15 -5 0
-7 -7 -4 -15z"/>
<path d="M3265 5550 c-3 -5 -1 -10 4 -10 6 0 11 5 11 10 0 6 -2 10 -4 10 -3 0
-8 -4 -11 -10z"/>
<path d="M3044 5323 c-3 -10 -12 -30 -20 -45 -16 -31 -18 -48 -4 -48 6 0 17
18 26 40 9 22 20 40 25 40 5 0 9 7 9 15 0 21 -29 19 -36 -2z"/>
<path d="M3083 5296 c-27 -31 -37 -62 -23 -71 7 -4 10 -1 9 6 -4 22 12 49 25
42 6 -3 8 -3 4 2 -4 4 -3 14 4 22 20 24 2 24 -19 -1z"/>
<path d="M3140 5265 c-11 -13 -10 -14 4 -9 9 3 16 10 16 15 0 13 -6 11 -20 -6z"/>
<path d="M2893 5234 c-20 -31 -20 -32 -2 -21 18 11 35 44 27 52 -1 1 -13 -12
-25 -31z"/>
<path d="M3162 5220 c0 -14 2 -19 5 -12 2 6 2 18 0 25 -3 6 -5 1 -5 -13z"/>
<path d="M2786 5171 c-21 -22 -35 -44 -31 -50 4 -8 14 -2 28 16 12 15 27 34
34 41 12 12 18 32 10 32 -2 0 -20 -18 -41 -39z"/>
<path d="M3171 5134 c0 -11 3 -14 6 -6 3 7 2 16 -1 19 -3 4 -6 -2 -5 -13z"/>
<path d="M2800 5109 c0 -5 5 -7 10 -4 6 3 10 8 10 11 0 2 -4 4 -10 4 -5 0 -10
-5 -10 -11z"/>
<path d="M2786 5073 c-6 -14 -5 -15 5 -6 7 7 10 15 7 18 -3 3 -9 -2 -12 -12z"/>
<path d="M2681 5014 c0 -11 3 -14 6 -6 3 7 2 16 -1 19 -3 4 -6 -2 -5 -13z"/>
<path d="M2721 4983 c0 -23 4 -45 9 -48 6 -3 10 -17 10 -31 0 -13 13 -38 30
-56 17 -17 30 -28 30 -25 0 6 -17 46 -51 122 -10 22 -20 49 -22 60 -3 11 -5 1
-6 -22z"/>
<path d="M2952 5009 c2 -6 8 -10 13 -10 5 0 11 4 13 10 2 6 -4 11 -13 11 -9 0
-15 -5 -13 -11z"/>
<path d="M3046 5012 c-2 -4 -1 -14 5 -22 7 -12 9 -10 9 8 0 23 -5 28 -14 14z"/>
<path d="M2800 4939 c0 -11 5 -17 10 -14 6 3 10 13 10 21 0 8 -4 14 -10 14 -5
0 -10 -9 -10 -21z"/>
<path d="M2970 4899 c0 -11 4 -18 10 -14 5 3 7 12 3 20 -7 21 -13 19 -13 -6z"/>
<path d="M3010 4903 c1 -12 50 -90 50 -79 0 5 7 3 15 -4 9 -8 15 -9 15 -2 0 6
-4 14 -10 17 -5 3 -10 17 -10 31 0 17 -5 24 -20 24 -11 0 -20 5 -20 10 0 6 -4
10 -10 10 -5 0 -10 -3 -10 -7z"/>
<path d="M3100 4802 c0 -10 43 -52 53 -52 17 0 5 29 -18 44 -27 18 -35 20 -35
8z"/>
<path d="M3150 4801 c0 -5 7 -11 15 -15 8 -3 15 -18 15 -33 0 -25 1 -26 16
-11 15 15 15 18 -2 42 -19 25 -44 35 -44 17z"/>
<path d="M3323 4698 c4 -13 1 -18 -10 -18 -13 0 -14 -3 -5 -12 8 -8 18 -8 32
-2 l22 9 -23 20 c-20 18 -22 18 -16 3z"/>
<path d="M5046 5581 c-4 -5 4 -7 16 -4 19 5 21 3 11 -8 -7 -7 -13 -17 -13 -23
0 -5 6 -1 14 9 8 11 12 23 10 27 -7 11 -32 10 -38 -1z"/>
<path d="M4680 5479 c0 -5 5 -7 10 -4 6 3 10 8 10 11 0 2 -4 4 -10 4 -5 0 -10
-5 -10 -11z"/>
<path d="M4585 5440 c3 -5 12 -10 20 -10 8 0 17 5 20 10 4 6 -5 10 -20 10 -15
0 -24 -4 -20 -10z"/>
<path d="M2783 4553 c9 -2 25 -2 35 0 9 3 1 5 -18 5 -19 0 -27 -2 -17 -5z"/>
<path d="M2672 4540 c-19 -4 -39 -13 -45 -19 -15 -15 -3 -14 73 9 44 13 55 18
35 18 -16 0 -45 -4 -63 -8z"/>
<path d="M4045 4510 c27 -12 43 -12 25 0 -8 5 -22 9 -30 9 -10 0 -8 -3 5 -9z"/>
<path d="M4045 4464 c-84 -23 -219 -34 -480 -41 -281 -7 -713 10 -844 33 -46
8 -86 12 -89 10 -2 -3 9 -8 24 -11 16 -4 43 -11 59 -16 53 -16 372 -30 675
-30 357 -1 608 18 692 50 20 7 28 7 31 -2 2 -7 8 -9 12 -5 9 9 -3 28 -18 27
-7 0 -34 -7 -62 -15z"/>
<path d="M4110 4378 l0 -56 -55 -23 c-30 -12 -53 -25 -50 -27 2 -3 29 5 58 17
54 22 54 22 60 74 4 29 2 56 -3 61 -7 7 -10 -9 -10 -46z"/>
<path d="M2633 4330 c0 -25 2 -35 4 -22 2 12 2 32 0 45 -2 12 -4 2 -4 -23z"/>
<path d="M2717 4309 c7 -7 15 -10 18 -7 3 3 -2 9 -12 12 -14 6 -15 5 -6 -5z"/>
<path d="M2769 4315 c-1 -3 -2 -11 -3 -17 -1 -8 -14 -12 -33 -11 -18 2 -34 -1
-37 -6 -10 -16 209 -47 394 -55 l115 -5 -130 14 c-209 21 -314 38 -309 47 4 5
12 7 20 4 12 -4 12 -2 4 14 -10 19 -19 25 -21 15z"/>
<path d="M4050 4259 c-30 -10 -74 -23 -96 -29 -34 -8 -42 -14 -41 -33 2 -72
-49 -365 -94 -536 -35 -136 -66 -216 -126 -331 -55 -105 -59 -109 -80 -88 -14
15 -15 19 -1 40 22 34 92 247 121 368 31 126 63 324 72 437 7 86 11 93 60 112
24 9 10 10 -75 6 -58 -3 -203 -8 -323 -11 -182 -6 -217 -9 -213 -21 6 -16 -17
-28 -34 -18 -8 5 -8 11 1 21 9 11 7 14 -14 14 -100 0 -481 45 -553 66 -21 5
-21 3 -18 -58 15 -245 80 -550 150 -705 8 -17 14 -36 14 -43 0 -7 6 -24 14
-38 7 -15 19 -40 26 -57 7 -16 16 -38 21 -47 5 -10 9 -22 9 -28 0 -6 9 -20 19
-31 18 -19 34 -69 25 -78 -2 -2 -14 4 -26 15 -22 20 -16 4 11 -28 20 -23 27
-23 62 6 24 21 34 23 61 16 47 -13 227 -28 418 -36 91 -3 171 -11 177 -16 7
-6 29 -7 49 -3 25 4 34 3 29 -5 -4 -7 7 -8 37 -4 73 11 113 28 110 46 -1 8 4
18 13 22 8 3 15 11 15 17 0 7 -11 2 -25 -11 -38 -36 -39 -18 -2 38 59 90 158
336 160 399 1 23 5 39 8 37 9 -5 18 35 24 104 3 31 7 66 9 77 3 11 5 26 5 33
1 7 6 10 11 7 6 -3 10 0 10 9 0 8 -4 16 -10 18 -5 2 -7 19 -3 41 4 26 9 34 14
25 6 -8 9 4 9 32 0 25 5 52 10 60 13 18 3 -141 -11 -184 -10 -31 -13 -113 -3
-104 10 10 33 201 39 323 3 66 8 132 10 148 5 31 2 32 -75 6z m-803 -141 c-3
-8 -6 -5 -6 6 -1 11 2 17 5 13 3 -3 4 -12 1 -19z m850 -15 c-3 -10 -5 -4 -5
12 0 17 2 24 5 18 2 -7 2 -21 0 -30z m-27 -50 c-11 -17 -11 -17 -6 0 3 10 6
24 7 30 0 9 2 9 5 0 3 -7 0 -20 -6 -30z m-295 -913 c-3 -5 -16 -10 -28 -9 -21
0 -21 1 -2 9 28 12 37 12 30 0z"/>
<path d="M3940 4260 c-13 -9 -13 -10 0 -9 8 0 24 4 35 9 l20 9 -20 0 c-11 0
-27 -4 -35 -9z"/>
<path d="M3823 4233 c9 -2 23 -2 30 0 6 3 -1 5 -18 5 -16 0 -22 -2 -12 -5z"/>
<path d="M3543 4223 c9 -2 23 -2 30 0 6 3 -1 5 -18 5 -16 0 -22 -2 -12 -5z"/>
<path d="M3598 4223 c7 -3 16 -2 19 1 4 3 -2 6 -13 5 -11 0 -14 -3 -6 -6z"/>
<path d="M3748 4223 c7 -3 16 -2 19 1 4 3 -2 6 -13 5 -11 0 -14 -3 -6 -6z"/>
<path d="M3318 4213 c7 -3 16 -2 19 1 4 3 -2 6 -13 5 -11 0 -14 -3 -6 -6z"/>
<path d="M3368 4213 c6 -2 18 -2 25 0 6 3 1 5 -13 5 -14 0 -19 -2 -12 -5z"/>
<path d="M4051 3708 c-24 -116 -98 -324 -157 -440 -14 -27 -21 -47 -15 -44 23
15 122 249 161 382 18 61 35 164 28 164 -2 0 -10 -28 -17 -62z"/>
<path d="M3593 3093 c9 -2 25 -2 35 0 9 3 1 5 -18 5 -19 0 -27 -2 -17 -5z"/>
<path d="M3428 3083 c6 -2 18 -2 25 0 6 3 1 5 -13 5 -14 0 -19 -2 -12 -5z"/>
<path d="M2490 4206 c0 -2 8 -10 18 -17 15 -13 16 -12 3 4 -13 16 -21 21 -21
13z"/>
<path d="M1905 3889 c-4 -6 -2 -16 5 -22 10 -9 11 -9 6 0 -3 6 -1 13 6 15 9 3
9 6 1 11 -7 4 -15 2 -18 -4z"/>
<path d="M2168 3873 c6 -2 18 -2 25 0 6 3 1 5 -13 5 -14 0 -19 -2 -12 -5z"/>
<path d="M2366 3763 c-6 -14 -5 -15 5 -6 7 7 10 15 7 18 -3 3 -9 -2 -12 -12z"/>
</g>
</svg>
