<svg xmlns="http://www.w3.org/2000/svg" viewBox="0 0 128 128">
  <path fill="#7E69AB" d="M117.5 33.5l.3-.2c-.6-1.1-1.5-2.1-2.4-2.6L67.1 2.9c-.8-.5-1.9-.7-3.1-.7-1.2 0-2.3.3-3.1.7l-48 27.9c-1.7 1-3.4 3.5-3.4 5.6v55.7c0 2.1 1.7 4.6 3.4 5.6l48.2 27.9c.8.5 1.9.7 3.1.7 1.2 0 2.3-.3 3.1-.7l48-27.9c1.7-1 3.4-3.5 3.4-5.6V36.1c.1-.8-.2-1.7-.5-2.6zM64 87.8c-13.5 0-24.5-11-24.5-24.5s11-24.5 24.5-24.5c9.1 0 17.1 5 21.3 12.5l13-7.5c-6.8-11.9-19.6-20-34.3-20-21.8 0-39.5 17.7-39.5 39.5s17.7 39.5 39.5 39.5c14.6 0 27.4-8 34.2-19.8l-12.9-7.6c-4.2 7.4-12.2 12.4-21.3 12.4zm49-39.8h-3.2v-3.2h-3.2v3.2h-3.2v3.2h3.2v3.2h3.2v-3.2h3.2v-3.2zm-8.8 0h-3.2v-3.2h-3.2v3.2h-3.2v3.2h3.2v3.2h3.2v-3.2h3.2v-3.2z"/>
</svg>