<svg xmlns="http://www.w3.org/2000/svg" viewBox="0 0 128 128">
  <path fill="#F97316" d="M62.271 10.88c-.189.11-.982 1.248-1.763 2.529-1.96 3.217-1.982 3.219-4.615.448-1.713-1.802-2.127-2.132-2.679-2.128-.359.002-.812.124-1.008.271-.195.147-.748 1.317-1.228 2.6-1.099 2.939-1.152 3.034-1.761 3.151-.375.071-1.097-.331-2.828-1.574-2.88-2.069-3.057-2.126-3.989-1.28-.386.35-.787.839-.89 1.087-.103.248-.19 1.045-.193 1.771-.004 1.368-.063 1.492-1.494 3.133-1.228 1.404-1.361 1.498-2.034 1.425-.401-.044-1.307-.187-2.013-.319-1.535-.285-2.229-.043-2.99 1.049-.447.641-.522.969-.522 2.289 0 1.374-.069 1.635-.535 2.02-.301.249-.731.482-.956.518-.226.036-1.214-.158-2.196-.431-2.711-.756-3.511-.384-4.338 2.016-.407 1.182-.503 1.734-.394 2.275.08.396.158.908.174 1.136.016.229-.133.621-.331.872-.198.251-1.071.913-1.938 1.471-2.401 1.547-2.764 2.298-1.906 3.921.238.451.433 1.045.433 1.32 0 .275-.236.872-.524 1.326-.288.454-.613 1.046-.723 1.315-.109.269-.307.489-.44.489-.132 0-.917-.355-1.744-.789-1.62-.851-2.022-.881-2.96-.22-.941.663-1.339 1.916-1.186 3.742.128 1.531.117 1.6-.418 2.584-.306.561-.722 1.116-.923 1.233-.201.117-1.02.268-1.821.337-2.002.172-2.609.529-3.152 1.848-.274.667-.309.992-.181 1.686.086.468.158 1.183.159 1.59.002.407-.115.99-.26 1.295-.145.305-.728.948-1.295 1.429-1.23 1.047-1.548 1.5-1.548 2.219 0 .481.373 1.176 1.095 2.033.276.328.501.816.501 1.085 0 .269-.376.908-.835 1.42-.459.512-.893 1.085-.964 1.273-.071.188-.129.611-.129.94 0 .329-.08.708-.177.842-.097.134-.751.438-1.454.676-1.605.544-1.954.793-2.354 1.679-.336.744-.35.92-.119 1.545.137.374.401.779.588.9.187.121.339.349.339.506s-.152.385-.339.506c-.187.121-.451.526-.588.9-.231.625-.217.801.119 1.545.4.886.749 1.135 2.354 1.679.703.238 1.357.542 1.454.676.097.134.177.513.177.842 0 .329.058.752.129.94.071.188.505.761.964 1.273.459.512.835 1.151.835 1.42 0 .269-.225.757-.501 1.085-.722.857-1.095 1.552-1.095 2.033 0 .719.318 1.172 1.548 2.219.567.481 1.15 1.124 1.295 1.429.145.305.262.888.26 1.295-.001.407-.073 1.122-.159 1.59-.128.694-.093 1.019.181 1.686.543 1.319 1.15 1.676 3.152 1.848.801.069 1.62.22 1.821.337.201.117.617.672.923 1.233.535.984.546 1.053.418 2.584-.153 1.826.245 3.079 1.186 3.742.938.661 1.34.631 2.96-.22.827-.434 1.612-.789 1.744-.789.133 0 .331.22.44.489.11.269.435.861.723 1.315.288.454.524 1.051.524 1.326 0 .275-.195.869-.433 1.32-.858 1.623-.495 2.374 1.906 3.921.867.558 1.74 1.22 1.938 1.471.198.251.347.643.331.872-.16.228-.094.74-.174 1.136-.109.541-.013 1.093.394 2.275.827 2.4 1.627 2.772 4.338 2.016.982-.273 1.97-.467 2.196-.431.225.036.655.269.956.518.466.385.535.646.535 2.02 0 1.32.075 1.648.522 2.289.761 1.092 1.455 1.334 2.99 1.049.706-.132 1.612-.275 2.013-.319.673-.073.806.021 2.034 1.425 1.431 1.641 1.49 1.765 1.494 3.133.003.726.09 1.523.193 1.771.103.248.504.737.89 1.087.932.846 1.109.789 3.989-1.28 1.731-1.243 2.453-1.645 2.828-1.574.609.117.662.212 1.761 3.151.48 1.283 1.033 2.453 1.228 2.6.196.147.649.269 1.008.271.552.004.966-.326 2.679-2.128 2.633-2.771 2.655-2.769 4.615.448.781 1.281 1.574 2.419 1.763 2.529.685.398 1.256.061 2.456-1.444.604-.757 1.225-1.376 1.382-1.376.157 0 .81.356 1.451.791 1.679 1.136 2.552 1.136 3.294 0 .339-.518.822-1.008 1.074-1.088.252-.08 1.015-.144 1.695-.143.911.002 1.347-.109 1.748-.444.301-.252.728-.865.949-1.363.221-.498.488-.905.594-.905.106 0 .847.334 1.647.742 1.584.808 2.032.881 2.799.458.994-.549 1.617-2.333 1.617-4.625 0-1.965.126-2.215 1.452-2.881.581-.292 1.166-.531 1.3-.531.134 0 .698.428 1.254.951.556.523 1.254.952 1.551.952.825 0 1.777-.969 2.37-2.412.472-1.15.509-1.377.276-1.731-.143-.217-.26-.577-.26-.799 0-.223.334-.704.742-1.069.408-.365.834-.886.946-1.158.112-.272.204-.942.204-1.489 0-1.043.01-1.069.806-2.051.454-.559.909-1.018 1.011-1.018.102 0 .693.216 1.313.48 1.09.465 1.14.471 1.756.188.346-.159.822-.604 1.058-.988.367-.599.401-.815.401-2.539 0-1.584.046-1.965.265-2.184.151-.151.444-.275.651-.275.207 0 .943.263 1.636.584 1.333.618 1.703.7 2.291.509.472-.154 2.511-2.011 2.77-2.519.232-.456.191-1.841-.068-2.324-.131-.244-.238-.587-.238-.762 0-.175.386-.673.858-1.107.472-.434.992-1.024 1.156-1.312.234-.414.29-.762.29-1.815 0-1.119.039-1.329.265-1.422.151-.062.604-.113 1.008-.113.404 0 1.06-.135 1.459-.3.399-.165.908-.505 1.131-.756.223-.251.405-.596.405-.767 0-.17.064-.371.143-.446.079-.075.143-.385.143-.689 0-.304.064-.614.143-.689.079-.075.143-.339.143-.586 0-.248-.064-.512-.143-.587-.079-.075-.143-.385-.143-.689 0-.304-.064-.614-.143-.689-.079-.075-.143-.276-.143-.446 0-.171-.182-.516-.405-.767-.223-.251-.732-.591-1.131-.756-.399-.165-1.055-.3-1.459-.3-.404 0-.857-.051-1.008-.113-.226-.093-.265-.303-.265-1.422 0-1.053-.056-1.401-.29-1.815-.164-.288-.684-.878-1.156-1.312-.472-.434-.858-.932-.858-1.107 0-.175.107-.518.238-.762.259-.483.3-1.868.068-2.324-.259-.508-2.298-2.365-2.77-2.519-.588-.191-.958-.109-2.291.509-.693.321-1.429.584-1.636.584-.207 0-.5-.124-.651-.275-.219-.219-.265-.6-.265-2.184 0-1.724-.034-1.94-.401-2.539-.236-.384-.712-.829-1.058-.988-.616-.283-.666-.277-1.756.188-.62.264-1.211.48-1.313.48-.102 0-.557-.459-1.011-1.018-.796-.982-.806-1.008-.806-2.051 0-.547-.092-1.217-.204-1.489-.112-.272-.538-.793-.946-1.158-.408-.365-.742-.846-.742-1.069 0-.222.117-.582.26-.799.233-.354.196-.581-.276-1.731-.593-1.443-1.545-2.412-2.37-2.412-.297 0-.995.429-1.551.952-.556.523-1.12.951-1.254.951-.134 0-.719-.239-1.3-.531-1.326-.666-1.452-.916-1.452-2.881 0-2.292-.623-4.076-1.617-4.625-.767-.423-1.215-.35-2.799.458-.8.408-1.541.742-1.647.742-.106 0-.373-.407-.594-.905-.221-.498-.648-1.111-.949-1.363-.401-.335-.837-.446-1.748-.444-.68.001-1.443-.063-1.695-.143-.252-.08-.735-.57-1.074-1.088-.742-1.136-1.615-1.136-3.294 0-.641.435-1.294.791-1.451.791-.157 0-.778-.619-1.382-1.376-1.2-1.505-1.771-1.842-2.456-1.444zm1.866 19.328c10.347 1.615 18.763 8.876 22.358 19.295 1.233 3.572 1.584 5.841 1.584 10.24 0 4.444-.352 6.719-1.622 10.498-2.711 8.072-9.337 14.992-17.679 18.433-5.511 2.274-12.544 2.827-18.313 1.444-16.68-3.997-27.367-20.574-23.771-36.962 3.234-14.706 16.336-25.027 31.443-24.948 1.917.01 4.562.235 5.878.5zm-9.228 2.753c-1.458.591-2.502 2.106-2.502 3.629 0 1.268.516 2.176 1.726 3.035 1.652 1.174 3.351 1.151 5.012-.068 1.317-.965 1.824-1.928 1.824-3.467 0-1.539-.507-2.502-1.824-3.467-1.458-1.067-2.778-1.178-4.236-.662zm19.823 1.089c-1.336.516-2.502 2.2-2.502 3.611 0 1.268.516 2.176 1.726 3.035 1.652 1.174 3.351 1.151 5.012-.068 1.317-.965 1.824-1.928 1.824-3.467 0-1.539-.507-2.502-1.824-3.467-1.458-1.067-2.778-1.178-4.236-.662zm-9.911 8.018c-3.22.517-6.459 2.147-8.744 4.405-2.285 2.258-3.825 5.056-4.548 8.266-.481 2.133-.481 5.876 0 8.009 1.284 5.694 5.291 10.498 10.728 12.858 2.95 1.282 7.05 1.72 10.244 1.093 6.101-1.199 11.2-5.688 13.335-11.722.839-2.373 1.003-3.427 1.003-6.444 0-3.017-.164-4.071-1.003-6.444-2.135-6.034-7.234-10.523-13.335-11.722-1.681-.331-5.999-.519-7.68-.335zm-15.521 3.916c-1.336.516-2.502 2.2-2.502 3.611 0 1.268.516 2.176 1.726 3.035 1.652 1.174 3.351 1.151 5.012-.068 1.317-.965 1.824-1.928 1.824-3.467 0-1.539-.507-2.502-1.824-3.467-1.458-1.067-2.778-1.178-4.236-.662zm31.042 0c-1.336.516-2.502 2.2-2.502 3.611 0 1.268.516 2.176 1.726 3.035 1.652 1.174 3.351 1.151 5.012-.068 1.317-.965 1.824-1.928 1.824-3.467 0-1.539-.507-2.502-1.824-3.467-1.458-1.067-2.778-1.178-4.236-.662zm-15.521 3.916c-1.336.516-2.502 2.2-2.502 3.611 0 1.268.516 2.176 1.726 3.035 1.652 1.174 3.351 1.151 5.012-.068 1.317-.965 1.824-1.928 1.824-3.467 0-1.539-.507-2.502-1.824-3.467-1.458-1.067-2.778-1.178-4.236-.662zm-15.521 3.916c-1.336.516-2.502 2.2-2.502 3.611 0 1.268.516 2.176 1.726 3.035 1.652 1.174 3.351 1.151 5.012-.068 1.317-.965 1.824-1.928 1.824-3.467 0-1.539-.507-2.502-1.824-3.467-1.458-1.067-2.778-1.178-4.236-.662zm31.042 0c-1.336.516-2.502 2.2-2.502 3.611 0 1.268.516 2.176 1.726 3.035 1.652 1.174 3.351 1.151 5.012-.068 1.317-.965 1.824-1.928 1.824-3.467 0-1.539-.507-2.502-1.824-3.467-1.458-1.067-2.778-1.178-4.236-.662zm-15.521 3.916c-1.336.516-2.502 2.2-2.502 3.611 0 1.268.516 2.176 1.726 3.035 1.652 1.174 3.351 1.151 5.012-.068 1.317-.965 1.824-1.928 1.824-3.467 0-1.539-.507-2.502-1.824-3.467-1.458-1.067-2.778-1.178-4.236-.662zm-9.911 8.018c-1.336.516-2.502 2.2-2.502 3.611 0 1.268.516 2.176 1.726 3.035 1.652 1.174 3.351 1.151 5.012-.068 1.317-.965 1.824-1.928 1.824-3.467 0-1.539-.507-2.502-1.824-3.467-1.458-1.067-2.778-1.178-4.236-.662zm19.823 0c-1.336.516-2.502 2.2-2.502 3.611 0 1.268.516 2.176 1.726 3.035 1.652 1.174 3.351 1.151 5.012-.068 1.317-.965 1.824-1.928 1.824-3.467 0-1.539-.507-2.502-1.824-3.467-1.458-1.067-2.778-1.178-4.236-.662z"/>
</svg>